<svg id="Glyph" xmlns="http://www.w3.org/2000/svg" viewBox="0 0 64 64"><title>1</title><path d="M53.42,41.09789a1.512,1.512,0,0,0-1.79,1.14l-.57,2.59a9.24509,9.24509,0,0,0-16.33,2.94,6.97134,6.97134,0,0,0-5.47,0A9.28365,9.28365,0,0,0,12.93,44.8181l-.56-2.51019a1.502,1.502,0,0,0-2.93.66l1.67,7.52c.60092,11.70871,17.22047,12.17,18.48.53992a4.13,4.13,0,0,1,4.81.00011,9.24939,9.24939,0,0,0,18.47-.54l1.69-7.59A1.51452,1.51452,0,0,0,53.42,41.09789Z"/><path d="M53.47992,22.74792c.47819,1.02126,1.15873,2.40388-.19181,3.10088a1.47318,1.47318,0,0,1-2.04128-.72119c-2.35419-5.46325-3.825-9.57006-6.89685-17.45971a5.00418,5.00418,0,0,0-4.57111-3.20532C37.70348,4.26763,34.827,6.719,33.12,7.65786a2.058,2.058,0,0,1-2.14,0L27.03,5.188a5.0494,5.0494,0,0,0-7.31006,2.39c-1.00995,2.51178-6.14966,15.38861-7.04,17.61A1.50043,1.50043,0,1,1,9.85968,24.168L9.9,24.06792l.50995-1.28c-3.72,1.36-6.91,3.39-6.91,6.37989.1087,12.56,56.89087,12.5592,57,.00012C60.5,26.15789,57.25,24.1079,53.47992,22.74792Z"/></svg>